<?xml version="1.0" encoding="utf-8"?>
<!-- Generator: Adobe Illustrator 23.0.3, SVG Export Plug-In . SVG Version: 6.00 Build 0)  -->
<svg version="1.1" id="Layer_1" xmlns="http://www.w3.org/2000/svg" xmlns:xlink="http://www.w3.org/1999/xlink" x="0px" y="0px"
	 viewBox="0 0 504.8 86.7" style="enable-background:new 0 0 504.8 86.7;" xml:space="preserve">
<style type="text/css">
	.st0{fill:#FFFFFF;}
	.st1{fill:#F4EB21;}
</style>
<title>Asset 1</title>
<g>
	<path class="st0" d="M8.4,54.4c2.4,1.5,5.8,2.7,9.5,2.7c5.4,0,8.6-2.9,8.6-7c0-3.8-2.2-6-7.7-8.2C12,39.6,7.9,36.1,7.9,30.3
		c0-6.4,5.3-11.1,13.3-11.1c4.2,0,7.2,1,9.1,2l-1.5,4.3c-1.3-0.7-4.1-1.9-7.8-1.9c-5.6,0-7.7,3.3-7.7,6.1c0,3.8,2.5,5.7,8.2,7.9
		c6.9,2.7,10.5,6,10.5,12c0,6.3-4.7,11.8-14.4,11.8c-4,0-8.3-1.2-10.5-2.6L8.4,54.4z"/>
	<path class="st0" d="M44.4,19.9v24.3c0,9.2,4.1,13.1,9.6,13.1c6.1,0,10-4,10-13.1V19.9h5.4v23.9c0,12.6-6.6,17.8-15.5,17.8
		C45.4,61.5,39,56.7,39,44V19.9H44.4z"/>
	<path class="st0" d="M78.5,20.3c2.6-0.4,5.9-0.8,10.2-0.8c5.2,0,9.1,1.2,11.5,3.4c2.3,1.9,3.6,4.9,3.6,8.6c0,3.7-1.1,6.6-3.2,8.8
		c-2.8,3-7.4,4.5-12.5,4.5c-1.6,0-3-0.1-4.3-0.4v16.4h-5.3V20.3z M83.8,40.1c1.2,0.3,2.6,0.4,4.4,0.4c6.4,0,10.3-3.1,10.3-8.8
		c0-5.4-3.8-8-9.7-8c-2.3,0-4.1,0.2-5,0.4V40.1z"/>
	<path class="st0" d="M132.1,41.6h-15.9v14.8h17.8v4.4h-23.1v-41H133v4.4h-16.9v13h15.9V41.6z"/>
	<path class="st0" d="M140.8,20.4c2.7-0.5,6.5-0.9,10.2-0.9c5.7,0,9.3,1,11.9,3.3c2.1,1.8,3.2,4.6,3.2,7.8c0,5.4-3.4,9-7.7,10.5v0.2
		c3.2,1.1,5,4,6,8.3c1.3,5.7,2.3,9.7,3.2,11.3H162c-0.7-1.2-1.6-4.7-2.7-9.8c-1.2-5.7-3.4-7.8-8.2-8h-5v17.8h-5.3V20.4z M146.1,39.1
		h5.4c5.7,0,9.2-3.1,9.2-7.8c0-5.3-3.8-7.6-9.4-7.7c-2.6,0-4.4,0.2-5.2,0.5V39.1z"/>
</g>
<g>
	<path class="st0" d="M300.1,20.3c2.6-0.4,5.9-0.8,10.2-0.8c5.2,0,9.1,1.2,11.5,3.4c2.3,1.9,3.6,4.9,3.6,8.6c0,3.7-1.1,6.6-3.2,8.8
		c-2.8,3-7.4,4.5-12.5,4.5c-1.6,0-3-0.1-4.3-0.4v16.4h-5.3V20.3z M305.4,40.1c1.2,0.3,2.6,0.4,4.4,0.4c6.4,0,10.3-3.1,10.3-8.8
		c0-5.4-3.8-8-9.7-8c-2.3,0-4.1,0.2-5,0.4V40.1z"/>
	<path class="st0" d="M332.5,19.9h5.3v36.6h17.5v4.4h-22.8V19.9z"/>
	<path class="st0" d="M367.9,48l-4.3,12.9h-5.5l13.9-41h6.4l14,41h-5.7L382.4,48H367.9z M381.3,43.8l-4-11.8
		c-0.9-2.7-1.5-5.1-2.1-7.5H375c-0.6,2.4-1.3,4.9-2.1,7.4l-4,11.9H381.3z"/>
	<path class="st0" d="M398.5,60.9v-41h5.8l13.1,20.7c3,4.8,5.4,9.1,7.4,13.3l0.1-0.1c-0.5-5.5-0.6-10.5-0.6-16.9V19.9h5v41h-5.4
		l-13-20.8c-2.9-4.6-5.6-9.2-7.7-13.7l-0.2,0.1c0.3,5.2,0.4,10.1,0.4,16.9v17.5H398.5z"/>
	<path class="st0" d="M459.7,41.6h-15.9v14.8h17.8v4.4h-23.1v-41h22.1v4.4h-16.9v13h15.9V41.6z"/>
	<path class="st0" d="M477.2,24.4h-12.5v-4.5h30.4v4.5h-12.5v36.5h-5.4V24.4z"/>
</g>
<g>
	<path class="st1" d="M252.9,52.4c-0.4,0.2-0.7,0.4-1.1,0.7c-0.5,0.3-1,0.6-1.6,1c-11.4,7-26.4,14.9-44.8,21.9
		c0,0,9.6,9.8,23.8,10.5c1.6,0.2,3.2,0.3,4.7,0.3c23.9,0,43.3-19.4,43.4-43.3c0-2.8-0.3-5.7-0.8-8.4
		C269.1,41.4,261.2,47.2,252.9,52.4z"/>
	<path class="st1" d="M288.7,10.4c-2-3.5-9.9-3.3-20.9-0.1c7.5-1.8,12.6-1.7,14.1,0.8c1.6,2.8-1.6,8.1-8.3,14.5
		c-0.9-2-2-3.9-3.1-5.8l0,0c0,0-2.2-4.3-7.8-9.1c0,0,0,0-0.1-0.1v0c-1.3-1.1-2.7-2.2-4.4-3.3h0.1c-2.5-1.7-5.1-3.1-7.9-4.2
		c0,0,0,0,0,0c-0.1-0.2-0.3-0.2-0.7-0.3C244.8,1,239.4,0,234,0c-3.2,0-6.4,0.4-9.5,1l0,0c0,0-17.3,2-27.8,20.2
		c-0.1,0.2-0.2,0.3-0.3,0.5c0,0.1-0.1,0.1-0.1,0.2c0,0,0,0.1-0.1,0.1c-8.1,14.3-7.5,32.6,2.7,46.6c-8.8,2.5-14.9,2.6-16.5-0.2
		c-1.5-2.5,1-7,6.3-12.6c-8.3,8-12.4,14.6-10.4,18.2c4.2,7.2,32.3-1.2,62.7-18.7C271.5,37.8,292.9,17.7,288.7,10.4z"/>
</g>
</svg>
