<svg xmlns="http://www.w3.org/2000/svg" viewBox="0 0 504.82 86.73"><defs><style>.cls-1{fill:#fff;}.cls-2{fill:#f4eb21;}</style></defs><title>Asset 1</title><g id="Layer_2" data-name="Layer 2"><g id="Layer_1-2" data-name="Layer 1"><g id="_Group_" data-name="&lt;Group&gt;"><path id="_Compound_Path_" data-name="&lt;Compound Path&gt;" class="cls-1" d="M10.15,24.81a19.05,19.05,0,0,1,5.68.76,10.91,10.91,0,0,1,4,2.15,8.65,8.65,0,0,1,2.36,3.36A11.84,11.84,0,0,1,23,35.47a11.18,11.18,0,0,1-.84,4.39,9.44,9.44,0,0,1-2.46,3.43,11.43,11.43,0,0,1-4,2.24,17.25,17.25,0,0,1-5.51.8H4.63V59.2H0V24.81Zm0,17.83a10.72,10.72,0,0,0,3.52-.53,7.33,7.33,0,0,0,2.57-1.48,6.07,6.07,0,0,0,1.57-2.27,7.76,7.76,0,0,0,.53-2.9,6.6,6.6,0,0,0-2-5.14q-2-1.85-6.16-1.85H4.63V42.64Z"/><path id="_Compound_Path_2" data-name="&lt;Compound Path&gt;" class="cls-1" d="M51.87,55.29V59.2H32.36V24.81H37V55.29Z"/><path id="_Compound_Path_3" data-name="&lt;Compound Path&gt;" class="cls-1" d="M91.13,59.2h-3.6a1.55,1.55,0,0,1-1-.31,1.91,1.91,0,0,1-.58-.79l-3.22-8.3H67.29l-3.22,8.3a1.69,1.69,0,0,1-.55.77,1.54,1.54,0,0,1-1,.34h-3.6L72.67,24.81h4.7Zm-9.7-12.77-5.4-14q-.24-.62-.5-1.45T75,29.23a26.24,26.24,0,0,1-1,3.24l-5.4,14Z"/><path id="_Compound_Path_4" data-name="&lt;Compound Path&gt;" class="cls-1" d="M127.74,24.81V59.2h-2.33a2,2,0,0,1-.92-.19,2.32,2.32,0,0,1-.73-.65l-19.9-25.92q0,.6.07,1.18t0,1.08V59.2H99.88V24.81h2.4a3.29,3.29,0,0,1,.53,0,1.35,1.35,0,0,1,.38.12,1.48,1.48,0,0,1,.34.24,3.94,3.94,0,0,1,.36.4l19.9,25.9q0-.62-.08-1.21c0-.39,0-.76,0-1.12V24.81Z"/><path id="_Compound_Path_5" data-name="&lt;Compound Path&gt;" class="cls-1" d="M161.73,55.41l0,3.79H140.51V24.81H161.7V28.6H145.17V40h13.39v3.65H145.17V55.41Z"/><path id="_Compound_Path_6" data-name="&lt;Compound Path&gt;" class="cls-1" d="M196.6,28.72H185.46V59.2h-4.63V28.72H169.67V24.81H196.6Z"/></g><g id="_Group_2" data-name="&lt;Group&gt;"><path id="_Compound_Path_7" data-name="&lt;Compound Path&gt;" class="cls-1" d="M334,52.1a.89.89,0,0,1,.67.31l1.85,2a14.72,14.72,0,0,1-5.12,3.82,17.53,17.53,0,0,1-7.28,1.37,17,17,0,0,1-6.72-1.28,14.78,14.78,0,0,1-5.16-3.6A16.28,16.28,0,0,1,309,49.15,20.74,20.74,0,0,1,307.78,42,20,20,0,0,1,309,34.89a16.31,16.31,0,0,1,3.44-5.57,15.41,15.41,0,0,1,5.32-3.61,17.7,17.7,0,0,1,6.84-1.28,16.67,16.67,0,0,1,6.48,1.18A16.33,16.33,0,0,1,336,28.79l-1.54,2.14a1.26,1.26,0,0,1-.37.4,1.07,1.07,0,0,1-.61.16,1.9,1.9,0,0,1-1.06-.47,16,16,0,0,0-1.63-1,12.15,12.15,0,0,0-6.24-1.51,12.5,12.5,0,0,0-4.87.92,10.63,10.63,0,0,0-3.8,2.68,12.34,12.34,0,0,0-2.48,4.27,17.05,17.05,0,0,0-.89,5.69,16.59,16.59,0,0,0,.92,5.74A12.65,12.65,0,0,0,316,52a10.66,10.66,0,0,0,3.77,2.65,12,12,0,0,0,4.69.91,19.34,19.34,0,0,0,2.77-.18,11.27,11.27,0,0,0,2.28-.56,9.61,9.61,0,0,0,1.94-1,13.86,13.86,0,0,0,1.79-1.4A1.24,1.24,0,0,1,334,52.1Z"/><path id="_Compound_Path_8" data-name="&lt;Compound Path&gt;" class="cls-1" d="M375.13,59.2h-3.6a1.55,1.55,0,0,1-1-.31,1.91,1.91,0,0,1-.58-.79l-3.22-8.3H351.3l-3.22,8.3a1.69,1.69,0,0,1-.55.77,1.54,1.54,0,0,1-1,.34h-3.6l13.75-34.39h4.7Zm-9.7-12.77-5.4-14q-.24-.62-.5-1.45t-.5-1.76a26.24,26.24,0,0,1-1,3.24l-5.4,14Z"/><path id="_Compound_Path_9" data-name="&lt;Compound Path&gt;" class="cls-1" d="M402.26,30.19a1.77,1.77,0,0,1-.47.54,1,1,0,0,1-.61.18,1.71,1.71,0,0,1-1-.41q-.55-.41-1.38-.9a11.17,11.17,0,0,0-2-.9,8.57,8.57,0,0,0-2.82-.41,8.24,8.24,0,0,0-2.75.42,5.89,5.89,0,0,0-2,1.14,4.68,4.68,0,0,0-1.21,1.69,5.36,5.36,0,0,0-.41,2.1,3.88,3.88,0,0,0,.71,2.39,6.08,6.08,0,0,0,1.87,1.62,14.34,14.34,0,0,0,2.64,1.16l3,1q1.55.53,3,1.19a10.67,10.67,0,0,1,2.64,1.67,7.61,7.61,0,0,1,1.87,2.47,8.23,8.23,0,0,1,.71,3.6,11.62,11.62,0,0,1-.77,4.24,9.79,9.79,0,0,1-2.24,3.44,10.52,10.52,0,0,1-3.62,2.3,13.34,13.34,0,0,1-4.88.84,14.9,14.9,0,0,1-6.1-1.21,14.29,14.29,0,0,1-4.68-3.28l1.34-2.21a1.75,1.75,0,0,1,.47-.44,1.09,1.09,0,0,1,.61-.18,1.36,1.36,0,0,1,.71.25q.4.25.9.64T387,54a9.58,9.58,0,0,0,1.48.84,10,10,0,0,0,1.88.64,10.26,10.26,0,0,0,2.38.25,8.85,8.85,0,0,0,3-.46,6.26,6.26,0,0,0,2.2-1.28,5.57,5.57,0,0,0,1.38-2,6.63,6.63,0,0,0,.48-2.57,4.31,4.31,0,0,0-.71-2.56,5.87,5.87,0,0,0-1.86-1.67,12.9,12.9,0,0,0-2.64-1.14l-3-1a32.06,32.06,0,0,1-3-1.14,9.75,9.75,0,0,1-2.64-1.68A7.7,7.7,0,0,1,384,37.71a9.89,9.89,0,0,1,0-7.36,9,9,0,0,1,2.06-3,10.07,10.07,0,0,1,3.34-2.11,12.17,12.17,0,0,1,4.55-.79,14.46,14.46,0,0,1,5.24.91A12.4,12.4,0,0,1,403.39,28Z"/><path id="_Compound_Path_10" data-name="&lt;Compound Path&gt;" class="cls-1" d="M419.47,59.2h-4.66V24.81h4.66Z"/><path id="_Compound_Path_11" data-name="&lt;Compound Path&gt;" class="cls-1" d="M460.08,24.81V59.2h-2.33a2,2,0,0,1-.92-.19,2.32,2.32,0,0,1-.73-.65L436.2,32.44q0,.6.07,1.18t0,1.08V59.2h-4.08V24.81h2.4a3.29,3.29,0,0,1,.53,0,1.35,1.35,0,0,1,.38.12,1.48,1.48,0,0,1,.34.24,3.94,3.94,0,0,1,.36.4l19.9,25.9q0-.62-.08-1.21c0-.39,0-.76,0-1.12V24.81Z"/><path id="_Compound_Path_12" data-name="&lt;Compound Path&gt;" class="cls-1" d="M504.82,42a19.87,19.87,0,0,1-1.22,7.09,16.26,16.26,0,0,1-3.46,5.56,15.46,15.46,0,0,1-5.36,3.61,19.29,19.29,0,0,1-13.84,0,15.49,15.49,0,0,1-5.35-3.61,16.24,16.24,0,0,1-3.46-5.56A19.85,19.85,0,0,1,470.91,42a19.84,19.84,0,0,1,1.22-7.09,16.37,16.37,0,0,1,3.46-5.57,15.54,15.54,0,0,1,5.35-3.64,19.11,19.11,0,0,1,13.84,0,15.51,15.51,0,0,1,5.36,3.64,16.39,16.39,0,0,1,3.46,5.57A19.86,19.86,0,0,1,504.82,42ZM500,42a17.5,17.5,0,0,0-.86-5.69,12,12,0,0,0-2.45-4.26,10.62,10.62,0,0,0-3.84-2.68,14,14,0,0,0-10.06,0A10.73,10.73,0,0,0,479,32.07a11.93,11.93,0,0,0-2.46,4.26,17.48,17.48,0,0,0-.86,5.69,17.37,17.37,0,0,0,.86,5.68A12,12,0,0,0,479,51.94a10.59,10.59,0,0,0,3.85,2.66,14.13,14.13,0,0,0,10.06,0,10.48,10.48,0,0,0,3.84-2.66,12.06,12.06,0,0,0,2.45-4.25A17.39,17.39,0,0,0,500,42Z"/></g><g id="_Group_3" data-name="&lt;Group&gt;"><path id="_Path_" data-name="&lt;Path&gt;" class="cls-2" d="M252.26,0a43.16,43.16,0,0,0-24.31,7.45h48.62A43.16,43.16,0,0,0,252.26,0Z"/><path id="_Path_2" data-name="&lt;Path&gt;" class="cls-2" d="M262.37,57.74,250.61,82.66a11.57,11.57,0,0,1-3.09,3.81,43.8,43.8,0,0,0,4.74.26A43.32,43.32,0,0,0,294.79,35,214.56,214.56,0,0,1,262.37,57.74Z"/><path id="_Path_3" data-name="&lt;Path&gt;" class="cls-2" d="M232.3,81.86l5.78-11.58c-5.11,2.27-10,4.18-14.38,5.67A43.47,43.47,0,0,0,232.3,81.86Z"/><path id="_Path_4" data-name="&lt;Path&gt;" class="cls-2" d="M306.92,10.42c-2.05-3.55-9.88-3.33-20.92-.1,7.48-1.84,12.63-1.71,14.09.81,1.62,2.81-1.62,8.1-8.27,14.53a43.49,43.49,0,0,0-11-14.92v3.93a15.42,15.42,0,0,1-.72,5.19,32.57,32.57,0,0,1-1.39,3.3l-9.45,20c-3.93,2.58-8.11,5.17-12.51,7.71-4.18,2.42-8.31,4.64-12.32,6.67l13.52-27.13q1.28-2.33,2.58-4.25a30.19,30.19,0,0,1,2.91-3.64H227.85a3.61,3.61,0,0,1-1.47-.3,4,4,0,0,1-1.22-.83,4.37,4.37,0,0,1-.86-1.22,3.23,3.23,0,0,1-.33-1.42V10.51a43.29,43.29,0,0,0-6.86,58.21c-8.77,2.47-14.88,2.61-16.49-.17-1.46-2.52,1-7,6.34-12.6-8.31,7.95-12.42,14.61-10.37,18.17,4.18,7.23,32.26-1.16,62.72-18.75S311.1,17.65,306.92,10.42Z"/></g></g></g></svg>