<svg xmlns="http://www.w3.org/2000/svg" viewBox="0 0 2729.85 445.9"><defs><style>.cls-1{fill:#058cba;}.cls-2{fill:#fff;}</style></defs><title>Asset 2</title><g id="Layer_2" data-name="Layer 2"><g id="Layer_1-2" data-name="Layer 1"><rect class="cls-1" width="2729.85" height="445.9" rx="62.27" ry="62.27"/><path class="cls-2" d="M563,232.53v45.92c-9.4,4.09-21.12,7-38.29,7-29.84,0-52.33-17.31-52.33-47.56,0-29.71,22.49-48.11,54-48.11a112.79,112.79,0,0,1,32.71,4.36l-4.5,25.35a71.82,71.82,0,0,0-21.26-3.27c-18.12,0-24.8,8.59-24.8,21.67,0,14.58,10.49,21.12,20.3,21.12a22.69,22.69,0,0,0,3.27-.27V232.53Z"/><path class="cls-2" d="M610.74,217.4v8H647v24H610.74v8.45h41.43v25.76h-76V191.51h76V217.4Z"/><path class="cls-2" d="M760.91,191.51v92.12H727.25l-28.89-47.29v47.29H665.79V191.51h35.43l27.12,47v-47Z"/><path class="cls-2" d="M811.34,217.4v8h36.25v24H811.34v8.45h41.43v25.76h-76V191.51h76V217.4Z"/><path class="cls-2" d="M956.48,283.63H921.18c-5.59-28.89-9.95-28.75-20.58-28.75v28.75H866.4V192.46a246.92,246.92,0,0,1,35.43-2.73c26.44,0,52.47,6.41,52.47,32,0,14.31-9.4,20.58-16.9,24C945.17,247.25,952.66,255.7,956.48,283.63Zm-36.66-59.83c0-7.63-9.27-9.27-15.26-9.27a32.22,32.22,0,0,0-4.09.27v18.4a22,22,0,0,0,3.13.14C909.46,233.35,919.82,232,919.82,223.81Z"/><path class="cls-2" d="M1064.68,283.63h-35.57l-4.22-15.4H997.64l-4.09,15.4h-35.7L990,191.51h42.38ZM1003.5,246.7H1019l-7.77-28.35Z"/><path class="cls-2" d="M1117.7,283.63h-35.57V217.81H1056v-26.3h87.9v26.3H1117.7Z"/><path class="cls-2" d="M1187.75,217.4v8H1224v24h-36.25v8.45h41.43v25.76h-76V191.51h76V217.4Z"/><path class="cls-2" d="M1372.68,283.63h-35.57l-4.22-15.4h-27.25l-4.09,15.4h-35.7L1298,191.51h42.38Zm-61.19-36.93H1327l-7.77-28.35Z"/><path class="cls-2" d="M1501.6,283.63H1466.3c-5.59-28.89-9.95-28.75-20.58-28.75v28.75h-34.21V192.46a246.92,246.92,0,0,1,35.43-2.73c26.44,0,52.47,6.41,52.47,32,0,14.31-9.4,20.58-16.9,24C1490.29,247.25,1497.78,255.7,1501.6,283.63Zm-36.66-59.83c0-7.63-9.27-9.27-15.26-9.27a32.22,32.22,0,0,0-4.09.27v18.4a22,22,0,0,0,3.13.14C1454.58,233.35,1464.94,232,1464.94,223.81Z"/><path class="cls-2" d="M1609.81,283.63h-35.57l-4.22-15.4h-27.25l-4.09,15.4H1503l32.16-92.12h42.38Zm-61.19-36.93h15.54l-7.77-28.35Z"/><path class="cls-2" d="M1711.06,191.51v92.12H1677.4l-28.89-47.29v47.29h-32.57V191.51h35.43l27.12,47v-47Z"/><path class="cls-2" d="M1821.86,238.12c0,40.75-38.16,47.29-63.91,47.29a294.93,294.93,0,0,1-31.07-1.91V192.06a230.65,230.65,0,0,1,35.43-2.32C1797.47,189.74,1821.86,207,1821.86,238.12Zm-55.46,21.26c13.76,0,19.62-9.68,19.62-22.89,0-13.63-7-21.53-19.35-21.53-1.36,0-3.27,0-4.36.14v44.15A39.49,39.49,0,0,0,1766.39,259.38Z"/><path class="cls-2" d="M1933.47,237.57c0,29.84-21.12,47.83-52.06,47.83s-52.19-18-52.19-47.83,21.12-47.83,52.19-47.83S1933.47,207.73,1933.47,237.57Zm-35.84,0c0-13.63-5.45-21.4-16.22-21.4s-16.35,7.77-16.35,21.4,5.45,21.4,16.35,21.4S1897.63,251.2,1897.63,237.57Z"/><path class="cls-2" d="M2049,191.51v92.12h-33.12v-47l-18.53,29.43h-.82l-18.4-29.43v47h-33.12V191.51h35.7L1997,221.63l16.35-30.12Z"/><path class="cls-2" d="M2130,285.41a286.41,286.41,0,0,1-32.43-1.91V192.06a264.45,264.45,0,0,1,32-2.32c23.85,0,50.29,5.18,50.29,27.66,0,10.08-5.72,16.22-12.4,19.49,6,1.23,17,7.63,17,21C2184.5,280.64,2159,285.41,2130,285.41Zm1.36-57.78c1.23.14,3.82.14,5,.14,5.31,0,11.86-1.36,11.86-8,0-6-6.41-7.5-11.45-7.5-1.23,0-4.09.14-5.45.27Zm19.76,26.17c0-7.36-8.45-8.45-14-8.45-1.23,0-4.36.14-5.72.27V262c1,.14,4.77.14,6.13.14C2143.07,262.1,2151.12,260.47,2151.12,253.79Z"/><path class="cls-2" d="M2295.16,237.57c0,29.84-21.12,47.83-52.06,47.83s-52.19-18-52.19-47.83,21.12-47.83,52.19-47.83S2295.16,207.73,2295.16,237.57Zm-35.84,0c0-13.63-5.45-21.4-16.22-21.4s-16.35,7.77-16.35,21.4,5.45,21.4,16.35,21.4S2259.32,251.2,2259.32,237.57Z"/><path class="cls-2" d="M2401.87,191.51v92.12h-33.66l-28.89-47.29v47.29h-32.57V191.51h35.43l27.12,47v-47Z"/><path class="cls-2" d="M2505.72,191.51v55.74c0,26.17-16.63,38.16-44.56,38.16s-44.43-12-44.43-38.16V191.51h35.57v55.33c0,6.54,1.36,11.45,8.86,11.45s9-5,9-11.45V191.51Z"/><path class="cls-2" d="M2595.66,252.7c0,22.62-15.81,32.71-40.07,32.71-16.49,0-27.94-2.86-38.29-7l5.59-24.94c8.72,4.22,17.31,7.5,30.39,7.5,5.86,0,7.63-1.5,7.63-3.41,0-6.81-43.61-1.23-43.34-36.11.14-20.58,15.81-31.75,39.25-31.75a126.35,126.35,0,0,1,35.3,5.31l-5.59,24.8c-6-2.73-16.49-5.45-27.25-5.45-4.63,0-7.63.68-7.63,3.41C2551.64,224.49,2595.66,220.13,2595.66,252.7Z"/><path class="cls-2" d="M175.35,143.34h-28v50h29.83A47.65,47.65,0,0,1,216.41,214l3.93,5.7,28.42-42A95.48,95.48,0,0,0,175.35,143.34Z"/><path class="cls-2" d="M331.21,270.66a47.61,47.61,0,0,1-32.15-20.19l-3.67-5.37-28.49,42a92.44,92.44,0,0,0,64.34,33.6l0,24.33,63.64-49.63-63.7-50Z"/><path class="cls-2" d="M394.59,169l-63.48-49.63,0,24.33a91.89,91.89,0,0,0-68.92,40.12L216.5,251.21a47.46,47.46,0,0,1-39.33,20.86H147.82v49.05h34.12a83.54,83.54,0,0,0,69.18-36.65L299,213.94a47.46,47.46,0,0,1,32-20.27l0,25.25Z"/></g></g></svg>