<svg xmlns="http://www.w3.org/2000/svg" viewBox="0 0 248.33 172.33"><defs><style>.cls-1{fill:#eb413e;}.cls-2{fill:#d82f2d;}.cls-3{fill:#c92728;}.cls-4{fill:#ef4043;}.cls-5{fill:#fff;}</style></defs><title>Asset 1</title><g id="Layer_2" data-name="Layer 2"><g id="Isolation_Mode" data-name="Isolation Mode"><path class="cls-1" d="M1,2.57.7,3.1a5.17,5.17,0,0,0,1.69,7l82.24,66a5.17,5.17,0,0,0,7.24-1.76l16.89-29a5.17,5.17,0,0,0-2.08-7.18L7.86.58A5.17,5.17,0,0,0,1,2.57Z"/><path class="cls-2" d="M7.86.58A5.17,5.17,0,0,0,1,2.57L.7,3.1A5.15,5.15,0,0,0,.17,7c.05-.1.1-.2.16-.3l.31-.53a5.17,5.17,0,0,1,6.85-2l98.83,37.52a5.14,5.14,0,0,1,2.62,3.3,5.16,5.16,0,0,0-2.24-6.88Z"/><rect class="cls-2" x="24.36" y="23.69" width="61.12" height="20.2" rx="4.06" ry="4.06" transform="translate(-1.9 64.27) rotate(-59.82)"/><path class="cls-3" d="M59.51,5.8l-.19.32,4.34,2.52a4.06,4.06,0,0,1,1.47,5.55L38.67,59.69l6.11,3.55a4.06,4.06,0,0,0,5.55-1.47L77,16a4.06,4.06,0,0,0-1.47-5.55L65.06,4.33A4.06,4.06,0,0,0,59.51,5.8Z"/><path class="cls-1" d="M248.33,93.6l-45.79,78.73L52.7,85.18a22,22,0,0,1-8-30.08L68.41,14.41a22,22,0,0,1,30.08-8Z"/><rect class="cls-4" x="91.88" y="46.14" width="11.6" height="75.08" rx="5.8" ry="5.8" transform="matrix(0.5, -0.86, 0.86, 0.5, -23.76, 126.04)"/><path class="cls-2" d="M74.79,7.46a21.92,21.92,0,0,1,8.55,2.84l149.59,87-40.29,69.27,9.9,5.76L248.33,93.6,98.49,6.45A22,22,0,0,0,74.79,7.46Z"/><path class="cls-5" d="M105.59,52.81,102.06,59l-3.55-2,1.29-2.69-4.25-2.44L86.2,68.06,88.4,70l-1.59,2.78-9.58-5.5,1.59-2.78,2.75.95,9.35-16.28-4.24-2.43L85,49.17l-3.54-2L85,41Z"/><path class="cls-5" d="M114.58,75.18l-7.82-4.49L103,77.29l7.46,4.28,1.79-2.64,3.52,2-3.63,6.31L93.83,76.77,95.43,74l2.73.94,9.52-16.58-2.19-1.89,1.6-2.79,2.46,1.41,15.78,9.07-3.64,6.33-3.55-2,1.38-2.88-7.39-4.25-3.33,5.81,7.82,4.49Z"/><path class="cls-5" d="M138.22,71.55a11.06,11.06,0,0,1,5.14,5.34,7,7,0,0,1-.62,6.26,5.77,5.77,0,0,1-2.68,2.49,7.55,7.55,0,0,1-3.94.5,5.74,5.74,0,0,1,1.79,3.7,7.32,7.32,0,0,1-1.1,4L136.14,95a2.31,2.31,0,0,0-.38,1.36,1.55,1.55,0,0,0,.71,1.07l.53.41-1.6,2.79L133,99.26a4.33,4.33,0,0,1-2.49-3.05,5.89,5.89,0,0,1,.89-3.68l.76-1.32a4.29,4.29,0,0,0,.62-3.16,4,4,0,0,0-2-2.46L127,83.41l-3.5,6.09,2.2,1.9-1.59,2.78-9.57-5.49,1.59-2.78,2.73.94,9.52-16.58-2.19-1.89,1.6-2.79L130.31,67Zm-9.13,8.3,3.2,1.84a5,5,0,0,0,3.38.84A3.41,3.41,0,0,0,138,80.7a3.8,3.8,0,0,0,.47-3,4.52,4.52,0,0,0-2.3-2.55l-3.28-1.89Z"/><path class="cls-5" d="M169,97.23l-.09-.07-16,13.55-3.11-1.79,3.63-20.57-.1,0L148,98.7l-2.09,3.63,2.2,1.9L146.48,107l-9.57-5.49,1.59-2.78,2.73.94,9.52-16.58-2.19-1.89,1.6-2.79,2.46,1.41,6,3.47-3.89,20.4.09.05L170.6,90.14l8.53,4.9-1.6,2.79-2.75-.95-9.52,16.58,2.2,1.9-1.59,2.78-9.56-5.49,1.59-2.78,2.73.94,2.09-3.63Z"/><path class="cls-5" d="M194.09,113.44l-3.47-2,1.22-3.52a7.08,7.08,0,0,0-1.38-1.68,11.77,11.77,0,0,0-2.29-1.7,5.45,5.45,0,0,0-3.4-.89,2.88,2.88,0,0,0-2.23,1.47,2.61,2.61,0,0,0,0,2.55,17.33,17.33,0,0,0,2.84,3.75,16.89,16.89,0,0,1,4.19,6.14,6.72,6.72,0,0,1-.66,5.72,6.33,6.33,0,0,1-5,3.33,11.82,11.82,0,0,1-7.17-1.84,15.48,15.48,0,0,1-4.46-3.72,11.79,11.79,0,0,1-2.3-4.53l2.77-4.82,3.59,2.06-1.4,3.57a6.47,6.47,0,0,0,1.35,2,10.36,10.36,0,0,0,2.46,1.91,5.33,5.33,0,0,0,3.34.89,2.89,2.89,0,0,0,2.18-1.51,3.09,3.09,0,0,0,.29-2.68,11,11,0,0,0-2.43-3.42,21.75,21.75,0,0,1-4.6-6.4,6.17,6.17,0,0,1,.46-5.68,6.34,6.34,0,0,1,5-3.23,11.43,11.43,0,0,1,7,1.6,16.05,16.05,0,0,1,4.39,3.6,12.93,12.93,0,0,1,2.44,4.27Z"/></g></g></svg>